<?xml version="1.0" encoding="UTF-8"?><svg id="Layer_1" xmlns="http://www.w3.org/2000/svg" viewBox="0 0 77.79 77.79"><circle cx="38.89" cy="38.89" r="38.89" style="fill:#ffcf40;"/><path d="m31.76,13.19c-1.84,3.27-1.09,6.45.38,9.35,1.54,3.03,3.37,5.96,5.45,8.65,5.13,6.64,10.44,13.14,15.77,19.62,1.23,1.49,2.77,2.73,4.24,4.01,1.43,1.25,3.08,2.1,5.28,2.2-2.4,1.64-4.8,2.52-7.48,2.5-3.91-.04-7.12-1.48-9.7-4.53-6.65-7.88-12.87-16.09-18.78-24.53-1.41-2.02-2.39-4.18-2.74-6.65-.71-5.06,2.37-9.51,7.58-10.61Z"/><path d="m36.21,57.8c-4.08,1.8-7.88,2.51-11.76.45-5.2-2.76-6.99-8.56-4.3-14.02,1.17-2.37,2.85-4.28,5.34-5.83-1.21,4.31-.89,8.28,1.15,12.02,2.04,3.73,5.19,6.14,9.58,7.37Z"/><path d="m41.6,26.51c1.83-4.96,3.12-9.54-.99-13.62,1.92-.59,5.44,1.18,6.58,2.96,1.35,2.11,1.36,4.25-.17,6.31-1.35,1.82-3.2,3.02-5.42,4.36Z"/><path d="m48.35,31.61h11.57c-1.86,3.64-4.13,6.82-6.64,10.3.4-4.63-.14-8.54-4.94-10.3Z"/></svg>