<?xml version="1.0" encoding="UTF-8"?><svg id="Layer_1" xmlns="http://www.w3.org/2000/svg" viewBox="0 0 356.47 77.79"><path d="m121.63,27.15v4.79h-19.12v-4.5l5.18-.29h13.93Zm-7.88-7.98v27.53c0,1.18.24,2.01.73,2.51.49.49,1.32.74,2.51.74h3.67l.7,4.84c-.61.19-1.35.36-2.21.51-.86.15-1.71.26-2.54.31-.83.06-1.53.09-2.11.09-2.3,0-4.1-.66-5.37-1.97-1.28-1.31-1.92-3.2-1.92-5.67v-28.9h6.53Z"/><path d="m138.26,26.47c4.28,0,7.36.79,9.23,2.37,1.87,1.58,2.83,3.9,2.86,6.98.04,2.55-.53,4.47-1.7,5.79s-3.1,1.97-5.8,1.97h-15.12v-4.28h13.34c1.22,0,2.01-.34,2.35-1.03.34-.68.51-1.52.51-2.51-.04-1.56-.46-2.64-1.27-3.25-.81-.61-2.19-.91-4.13-.91-1.69,0-3.01.25-3.94.74-.94.49-1.59,1.39-1.97,2.68-.38,1.29-.57,3.15-.57,5.59,0,2.59.23,4.58.7,5.99.47,1.41,1.24,2.37,2.32,2.88,1.08.51,2.52.77,4.32.77,1.33,0,2.87-.06,4.62-.17,1.75-.11,3.43-.27,5.05-.46l.65,4.39c-.97.42-2.09.76-3.35,1.03s-2.56.46-3.92.6c-1.35.13-2.62.2-3.81.2-3.24,0-5.84-.5-7.8-1.51-1.96-1.01-3.38-2.59-4.27-4.76s-1.32-4.96-1.32-8.38c0-3.69.44-6.6,1.32-8.75.88-2.15,2.29-3.68,4.21-4.59s4.42-1.37,7.48-1.37Z"/><path d="m161.48,27.15l.65,5.47.65.8v21.72h-6.53v-27.99h5.24Zm10.91-.68c2.3,0,4.07.65,5.29,1.94,1.22,1.29,1.84,3.21,1.84,5.76v20.97h-6.26v-18.87c0-1.48-.29-2.52-.86-3.11-.58-.59-1.44-.88-2.59-.88-.72,0-1.44.12-2.16.34-.72.23-1.51.61-2.38,1.14-.86.53-1.94,1.25-3.24,2.17l-.38-4.16c1.8-1.79,3.56-3.12,5.29-3.99,1.73-.87,3.54-1.31,5.45-1.31Zm16.9,0c2.34,0,4.13.65,5.37,1.97,1.24,1.31,1.86,3.22,1.86,5.73v20.97h-6.48v-18.87c-.04-1.4-.31-2.42-.81-3.05-.5-.63-1.39-.94-2.65-.94-.76,0-1.48.12-2.19.37-.7.25-1.49.64-2.35,1.17-.86.53-1.91,1.24-3.13,2.11l-.38-4.16c1.84-1.79,3.61-3.12,5.32-3.99,1.71-.87,3.52-1.31,5.43-1.31Z"/><path d="m209,27.15l.65,5.41.59.8v18.07l-.27.68c.11,1.1.18,2.21.22,3.34.04,1.12.05,2.27.05,3.45v7.35h-6.53V27.15h5.29Zm11.18-.68c3.28,0,5.63,1.27,7.07,3.82,1.44,2.55,2.16,6.23,2.16,11.06,0,3.69-.37,6.58-1.11,8.69s-1.84,3.61-3.32,4.5c-1.48.89-3.35,1.34-5.62,1.34-1.8,0-3.56-.28-5.26-.83-1.71-.55-3.29-1.41-4.73-2.59l.43-3.42c1.4.42,2.66.78,3.78,1.08,1.12.3,2.34.46,3.67.46s2.38-.24,3.16-.71,1.34-1.38,1.7-2.71c.36-1.33.54-3.25.54-5.76s-.16-4.39-.49-5.76c-.32-1.37-.86-2.33-1.59-2.88-.74-.55-1.7-.83-2.89-.83-1.3,0-2.52.29-3.67.88-1.15.59-2.48,1.45-4,2.59l-.76-3.65c.83-1.03,1.83-1.94,3-2.74,1.17-.8,2.44-1.43,3.81-1.88,1.37-.46,2.74-.68,4.1-.68Z"/><path d="m242.26,15.24l-.05,31.46c0,1.06.29,1.87.86,2.42.58.55,1.4.83,2.48.83h2.32l.76,4.84c-.4.19-.95.36-1.65.51-.7.15-1.42.26-2.16.31-.74.06-1.38.09-1.92.09-2.2,0-3.94-.63-5.24-1.88s-1.94-3.06-1.94-5.41V15.24h6.53Z"/><path d="m273.04,37.93l-.05,4.27h-12.15c-1.08.04-1.85.34-2.32.91-.47.57-.7,1.35-.7,2.34v1.54c0,1.14.29,2,.86,2.59.58.59,1.48.88,2.7.88.97,0,2.05-.21,3.24-.63,1.19-.42,2.37-1.03,3.54-1.82,1.17-.8,2.22-1.75,3.16-2.85v3.59c-.36.57-.88,1.24-1.57,2.02-.68.78-1.52,1.55-2.51,2.31s-2.12,1.39-3.4,1.88c-1.28.49-2.69.74-4.24.74s-3.01-.29-4.27-.88c-1.26-.59-2.25-1.46-2.97-2.62-.72-1.16-1.08-2.59-1.08-4.3v-2.96c0-2.2.69-3.92,2.08-5.16,1.39-1.23,3.29-1.85,5.7-1.85h13.99Zm-7.02-11.46c2.12,0,3.92.29,5.37.88,1.46.59,2.57,1.59,3.32,2.99.76,1.41,1.13,3.34,1.13,5.81v18.98h-5.18l-.92-6.04-.49-.8v-12.2c0-1.48-.32-2.55-.97-3.22-.65-.66-1.89-1-3.73-1-1.37,0-3.09.06-5.16.17-2.07.11-4.15.27-6.24.46l-.59-4.73c1.26-.27,2.68-.49,4.27-.68,1.58-.19,3.19-.34,4.81-.46,1.62-.11,3.08-.17,4.37-.17Z"/><path d="m299.61,27.15v4.79h-19.12v-4.5l5.18-.29h13.93Zm-7.88-7.98v27.53c0,1.18.24,2.01.73,2.51.49.49,1.32.74,2.51.74h3.67l.7,4.84c-.61.19-1.35.36-2.21.51-.86.15-1.71.26-2.54.31-.83.06-1.53.09-2.11.09-2.3,0-4.1-.66-5.37-1.97-1.28-1.31-1.92-3.2-1.92-5.67v-28.9h6.53Z"/><path d="m316.24,26.47c4.28,0,7.36.79,9.23,2.37,1.87,1.58,2.83,3.9,2.86,6.98.04,2.55-.53,4.47-1.7,5.79s-3.1,1.97-5.8,1.97h-15.12v-4.28h13.34c1.22,0,2.01-.34,2.35-1.03.34-.68.51-1.52.51-2.51-.04-1.56-.46-2.64-1.27-3.25-.81-.61-2.19-.91-4.13-.91-1.69,0-3.01.25-3.94.74-.94.49-1.59,1.39-1.97,2.68-.38,1.29-.57,3.15-.57,5.59,0,2.59.23,4.58.7,5.99.47,1.41,1.24,2.37,2.32,2.88,1.08.51,2.52.77,4.32.77,1.33,0,2.87-.06,4.62-.17,1.75-.11,3.43-.27,5.05-.46l.65,4.39c-.97.42-2.09.76-3.35,1.03s-2.56.46-3.92.6c-1.35.13-2.62.2-3.81.2-3.24,0-5.84-.5-7.8-1.51-1.96-1.01-3.38-2.59-4.27-4.76s-1.32-4.96-1.32-8.38c0-3.69.44-6.6,1.32-8.75.88-2.15,2.29-3.68,4.21-4.59s4.42-1.37,7.48-1.37Z"/><path d="m343.78,26.47c1.22,0,2.55.04,3.97.11,1.42.08,2.82.18,4.18.31s2.59.31,3.67.54l-.43,4.5c-1.73-.04-3.45-.08-5.16-.14-1.71-.06-3.39-.08-5.05-.08-1.48,0-2.64.04-3.48.11s-1.44.3-1.78.68c-.34.38-.51,1.03-.51,1.94,0,1.1.29,1.83.86,2.2.58.36,1.51.71,2.81,1.05l7.24,1.77c2.16.57,3.76,1.43,4.81,2.59,1.04,1.16,1.57,2.93,1.57,5.33s-.41,4.08-1.21,5.27c-.81,1.2-2.09,2.01-3.83,2.45-1.75.44-3.97.65-6.67.65-1.04,0-2.59-.05-4.64-.14-2.05-.09-4.3-.35-6.75-.77l.43-4.5c.72,0,1.57.02,2.56.06.99.04,2.05.06,3.19.06h3.48c1.91,0,3.38-.07,4.4-.2s1.74-.42,2.13-.86c.4-.44.59-1.07.59-1.91,0-1.06-.33-1.78-1-2.14-.67-.36-1.65-.71-2.94-1.05l-7.07-1.82c-1.62-.46-2.88-1.03-3.78-1.74-.9-.7-1.55-1.58-1.94-2.62-.4-1.04-.59-2.33-.59-3.85,0-2.05.37-3.65,1.11-4.79.74-1.14,1.91-1.94,3.51-2.39,1.6-.46,3.72-.66,6.35-.63Z"/><circle cx="38.89" cy="38.89" r="38.89" style="fill:#ffcf40;"/><path d="m31.76,13.19c-1.84,3.27-1.09,6.45.38,9.35,1.54,3.03,3.37,5.96,5.45,8.65,5.13,6.64,10.44,13.14,15.77,19.62,1.23,1.49,2.77,2.73,4.24,4.01,1.43,1.25,3.08,2.1,5.28,2.2-2.4,1.64-4.8,2.52-7.48,2.5-3.91-.04-7.12-1.48-9.7-4.53-6.65-7.88-12.87-16.09-18.78-24.53-1.41-2.02-2.39-4.18-2.74-6.65-.71-5.06,2.37-9.51,7.58-10.61Z"/><path d="m36.21,57.8c-4.08,1.8-7.88,2.51-11.76.45-5.2-2.76-6.99-8.56-4.3-14.02,1.17-2.37,2.85-4.28,5.34-5.83-1.21,4.31-.89,8.28,1.15,12.02,2.04,3.73,5.19,6.14,9.58,7.37Z"/><path d="m41.6,26.51c1.83-4.96,3.12-9.54-.99-13.62,1.92-.59,5.44,1.18,6.58,2.96,1.35,2.11,1.36,4.25-.17,6.31-1.35,1.82-3.2,3.02-5.42,4.36Z"/><path d="m48.35,31.61h11.57c-1.86,3.64-4.13,6.82-6.64,10.3.4-4.63-.14-8.54-4.94-10.3Z"/></svg>